<svg width="600" height="400" viewBox="0 0 600 400" fill="none" xmlns="http://www.w3.org/2000/svg">
  <rect width="600" height="400" fill="#F5F7FF"/>
  <circle cx="300" cy="200" r="150" fill="#3B82F6" fill-opacity="0.1"/>
  <circle cx="300" cy="200" r="100" fill="#3B82F6" fill-opacity="0.2"/>
  <circle cx="300" cy="200" r="50" fill="#3B82F6" fill-opacity="0.3"/>
  <path d="M240 200C240 166.863 266.863 140 300 140C333.137 140 360 166.863 360 200C360 233.137 333.137 260 300 260" stroke="#3B82F6" stroke-width="8" stroke-linecap="round"/>
  <path d="M300 260C266.863 260 240 233.137 240 200" stroke="#3B82F6" stroke-width="8" stroke-linecap="round" stroke-dasharray="1 12"/>
  <path d="M320 160L340 180L320 200" stroke="#3B82F6" stroke-width="4" stroke-linecap="round" stroke-linejoin="round"/>
  <path d="M280 240L260 220L280 200" stroke="#3B82F6" stroke-width="4" stroke-linecap="round" stroke-linejoin="round"/>
  <rect x="380" y="180" width="40" height="20" rx="2" fill="#3B82F6"/>
  <rect x="380" y="210" width="60" height="4" rx="2" fill="#3B82F6" fill-opacity="0.6"/>
  <rect x="380" y="220" width="40" height="4" rx="2" fill="#3B82F6" fill-opacity="0.6"/>
  <rect x="180" y="180" width="40" height="20" rx="2" fill="#3B82F6"/>
  <rect x="160" y="210" width="60" height="4" rx="2" fill="#3B82F6" fill-opacity="0.6"/>
  <rect x="180" y="220" width="40" height="4" rx="2" fill="#3B82F6" fill-opacity="0.6"/>
</svg>