<svg width="500" height="300" viewBox="0 0 500 300" fill="none" xmlns="http://www.w3.org/2000/svg">
  <rect width="500" height="300" fill="#F3F4F6"/>
  <path d="M250 125C263.807 125 275 113.807 275 100C275 86.1929 263.807 75 250 75C236.193 75 225 86.1929 225 100C225 113.807 236.193 125 250 125Z" fill="#3B82F6" fill-opacity="0.4"/>
  <path d="M175 225V208.333C175 191.858 188.358 178.5 204.833 178.5H295.167C311.642 178.5 325 191.858 325 208.333V225" stroke="#3B82F6" stroke-width="8" stroke-linecap="round"/>
  <rect x="150" y="150" width="200" height="8" rx="4" fill="#3B82F6" fill-opacity="0.2"/>
  <rect x="170" y="170" width="160" height="8" rx="4" fill="#3B82F6" fill-opacity="0.2"/>
  <rect x="190" y="190" width="120" height="8" rx="4" fill="#3B82F6" fill-opacity="0.2"/>
</svg> 